<svg width="106" height="48" viewBox="0 0 106 48" fill="none" xmlns="http://www.w3.org/2000/svg">
<path d="M47.2451 38V35.4365L49.2959 34.9971V25.168L47.0254 24.7285V22.1504H53.2803L53.4414 24.1133L53.4707 24.4648C54.252 22.7266 55.4238 21.8574 56.9863 21.8574C57.2402 21.8574 57.5137 21.877 57.8066 21.916C58.1094 21.9551 58.3828 22.0137 58.627 22.0918L58.1729 26.0322L56.0488 25.915C55.4434 25.8857 54.9502 25.9883 54.5693 26.2227C54.1982 26.457 53.8662 26.7939 53.5732 27.2334V34.9971L55.624 35.4365V38H47.2451ZM59.9746 38V35.4365L62.04 34.9971V25.168L59.7549 24.7285V22.1504H66.3174V34.9971L68.3682 35.4365V38H59.9746ZM61.8936 18.7959V15.1484H66.3174V18.7959H61.8936ZM76.6006 38.3076C75.4189 38.3076 74.3154 38.1953 73.29 37.9707C72.2744 37.7461 71.2979 37.4238 70.3604 37.0039L70.3164 32.5215H73.29L73.8613 34.8066C74.1934 34.9727 74.5547 35.1045 74.9453 35.2021C75.3457 35.2998 75.7998 35.3486 76.3076 35.3486C77.2646 35.3486 77.9385 35.1924 78.3291 34.8799C78.7197 34.5674 78.915 34.1768 78.915 33.708C78.915 33.2686 78.7051 32.8828 78.2852 32.5508C77.8652 32.209 77.04 31.9111 75.8096 31.6572C73.9248 31.2666 72.5381 30.6611 71.6494 29.8408C70.7705 29.0205 70.3311 27.9707 70.3311 26.6914C70.3311 25.8223 70.5508 25.0215 70.9902 24.2891C71.4395 23.5566 72.1182 22.9756 73.0264 22.5459C73.9443 22.1064 75.1162 21.8867 76.542 21.8867C77.7334 21.8867 78.8223 22.0039 79.8086 22.2383C80.8047 22.4629 81.6396 22.7607 82.3135 23.1318L82.3574 27.4678H79.3984L78.9443 25.3877C78.3779 24.9971 77.665 24.8018 76.8057 24.8018C76.0635 24.8018 75.4873 24.958 75.0771 25.2705C74.6768 25.5732 74.4766 25.959 74.4766 26.4277C74.4766 26.8379 74.6523 27.209 75.0039 27.541C75.3652 27.8633 76.1514 28.1611 77.3623 28.4346C79.3252 28.8838 80.7559 29.4844 81.6543 30.2363C82.5527 30.9785 83.002 32.0234 83.002 33.3711C83.002 34.8457 82.4648 36.0371 81.3906 36.9453C80.3262 37.8535 78.7295 38.3076 76.6006 38.3076ZM91.1758 38.3076C89.7012 38.3076 88.5635 37.9023 87.7627 37.0918C86.9717 36.2812 86.5762 34.9971 86.5762 33.2393V25.1533H84.3936V22.1504H86.5762V18.2686H90.8389V22.1504H93.7539V25.1533H90.8389V33.2246C90.8389 33.8398 90.9658 34.2793 91.2197 34.543C91.4834 34.8066 91.8398 34.9385 92.2891 34.9385C92.5234 34.9385 92.7773 34.9238 93.0508 34.8945C93.3242 34.8555 93.5586 34.8164 93.7539 34.7773L94.1201 37.8682C93.6904 37.9951 93.2168 38.0977 92.6992 38.1758C92.1816 38.2637 91.6738 38.3076 91.1758 38.3076Z" fill="black"/>
<rect y="8" width="41.25" height="40" rx="12" fill="#5FC965"/>
<path d="M15.7275 40V37.4365L18.0127 36.9971V21.9678H14.1309L13.8965 24.5166H10.6592V18.6719H29.6875V24.5166H26.4355L26.2012 21.9678H22.29V36.9971L24.5898 37.4365V40H15.7275Z" fill="white"/>
<path d="M103.974 7.49023V14.293C103.991 15.0137 104.205 15.374 104.615 15.374C104.715 15.374 104.794 15.3623 104.853 15.3389L105.063 16.9209C104.765 17.0967 104.393 17.1846 103.947 17.1846C102.998 17.1846 102.368 16.707 102.058 15.752C101.46 16.7012 100.596 17.1758 99.4648 17.1758C98.3223 17.1758 97.417 16.7598 96.749 15.9277C96.0869 15.0898 95.7559 13.9443 95.7559 12.4912V12.377C95.7559 10.8184 96.0898 9.58496 96.7578 8.67676C97.4258 7.76855 98.334 7.31445 99.4824 7.31445C100.543 7.31445 101.375 7.75684 101.979 8.6416L102.146 7.49023H103.974ZM97.8916 12.5615C97.8916 13.4873 98.0703 14.2051 98.4277 14.7148C98.7852 15.2188 99.3096 15.4707 100.001 15.4707C100.821 15.4707 101.437 15.0723 101.847 14.2754V10.2764C101.437 9.44434 100.827 9.02832 100.019 9.02832C99.3447 9.02832 98.8203 9.31836 98.4453 9.89844C98.0762 10.4727 97.8916 11.3604 97.8916 12.5615Z" fill="black"/>
</svg>
