<svg width="640" height="481" viewBox="0 0 640 481" fill="none" xmlns="http://www.w3.org/2000/svg">
<path d="M373.158 52.0281C363.358 57.8402 360.558 67.861 359.398 71.9896C359.118 72.9917 355.838 85.2973 361.518 98.1239C363.198 101.932 364.998 105.86 369.078 107.744C371.438 108.866 373.558 108.786 381.878 108.065C385.758 107.744 389.958 107.343 394.438 106.862C397.598 102.814 403.038 94.7169 404.638 83.3332C404.918 81.2088 408.198 55.8761 394.438 49.1421C385.438 44.6928 374.598 51.1463 373.158 52.0281Z" fill="#5FC965"/>
<path d="M192.2 111.792C197.193 111.792 201.24 107.306 201.24 101.772C201.24 96.2372 197.193 91.7507 192.2 91.7507C187.208 91.7507 183.16 96.2372 183.16 101.772C183.16 107.306 187.208 111.792 192.2 111.792Z" fill="#5FC965"/>
<path d="M397.2 272.366C400.912 272.366 403.92 269.459 403.92 265.873C403.92 262.286 400.912 259.379 397.2 259.379C393.489 259.379 390.48 262.286 390.48 265.873C390.48 269.459 393.489 272.366 397.2 272.366Z" fill="#5FC965"/>
<path d="M192.281 233.165C195.043 233.165 197.281 230.921 197.281 228.154C197.281 225.387 195.043 223.144 192.281 223.144C189.52 223.144 187.281 225.387 187.281 228.154C187.281 230.921 189.52 233.165 192.281 233.165Z" fill="#5FC965"/>
<path d="M182.96 108.465C187.356 108.465 190.92 104.715 190.92 100.088C190.92 95.4613 187.356 91.7106 182.96 91.7106C178.564 91.7106 175 95.4613 175 100.088C175 104.715 178.564 108.465 182.96 108.465Z" fill="#378F3C"/>
<path d="M395.361 262.105C398.079 262.105 400.281 259.808 400.281 256.974C400.281 254.141 398.079 251.844 395.361 251.844C392.644 251.844 390.441 254.141 390.441 256.974C390.441 259.808 392.644 262.105 395.361 262.105Z" fill="#378F3C"/>
<path d="M461.119 120.611C464.101 120.611 466.519 118.026 466.519 114.839C466.519 111.651 464.101 109.067 461.119 109.067C458.136 109.067 455.719 111.651 455.719 114.839C455.719 118.026 458.136 120.611 461.119 120.611Z" fill="#378F3C"/>
<path d="M343.84 156.285C342.96 154.882 341.521 156.205 340.921 157.167C339.681 159.171 338.881 161.656 339.801 163.941C340.481 165.664 342.16 167.107 344.12 166.827C345.92 166.586 347.28 165.103 347.24 163.299C347.24 162.818 346.56 162.458 346.2 162.859C344.08 165.544 341.481 169.352 343.6 172.799C345.08 175.164 348.72 175.485 350.16 172.919C349.8 172.879 349.44 172.839 349.08 172.759C349.28 173.881 349.48 175.004 349.64 176.126C349.76 176.888 350.92 176.567 350.8 175.805C350.6 174.683 350.4 173.561 350.24 172.438C350.16 171.917 349.36 171.877 349.16 172.278C348.52 173.4 347.08 173.801 345.92 173.24C344.64 172.599 344.081 171.156 344.081 169.753C344.081 167.428 345.72 165.384 347.08 163.66C346.72 163.5 346.4 163.38 346.04 163.219C346.08 164.742 344.6 165.865 343.12 165.544C342 165.304 341.281 164.342 340.881 163.299C340.481 162.217 340.52 161.135 340.84 160.053C340.88 159.973 342.521 156.405 342.761 156.806C343.201 157.527 344.24 156.926 343.84 156.285Z" fill="#5FC965"/>
<path d="M180.522 159.892C181.402 157.487 184.322 158.53 185.242 160.213C185.562 160.774 185.722 161.416 185.802 162.057C185.962 163.259 185.842 163.74 184.802 164.462C183.682 165.584 183.402 165.143 184.002 163.139C184.282 163.019 184.602 162.899 184.882 162.778C185.642 162.578 186.522 162.618 187.282 162.859C189.202 163.5 190.162 165.544 189.882 167.428C189.802 167.909 190.282 168.39 190.762 168.109C193.362 166.626 196.802 168.27 197.402 171.196C197.562 171.957 198.722 171.637 198.562 170.875C197.802 167.188 193.442 165.264 190.162 167.107C190.442 167.348 190.762 167.548 191.042 167.789C191.562 164.261 188.882 160.975 185.162 161.536C183.882 161.736 181.962 162.538 181.802 164.061C181.682 165.304 182.842 166.226 184.002 166.346C187.442 166.666 187.362 161.656 186.242 159.652C184.722 156.926 180.522 156.245 179.322 159.612C179.082 160.293 180.242 160.614 180.522 159.892Z" fill="#5FC965"/>
<path d="M391.12 310.766C394.2 312.81 396.8 315.416 398.88 318.462C399.32 319.103 400.36 318.502 399.92 317.861C397.72 314.654 395 311.928 391.76 309.764C391.08 309.283 390.48 310.325 391.12 310.766Z" fill="#378F3C"/>
<path d="M398.921 312.971C399.561 313.732 400.161 314.534 400.801 315.295C401.281 315.897 402.121 315.055 401.641 314.454C401.001 313.692 400.401 312.89 399.761 312.129C399.281 311.528 398.441 312.409 398.921 312.971Z" fill="#378F3C"/>
<path d="M395.239 301.747C397.999 304.313 400.279 307.239 402.039 310.566C402.399 311.247 403.439 310.646 403.079 309.964C401.279 306.557 398.919 303.511 396.079 300.906C395.519 300.344 394.679 301.226 395.239 301.747Z" fill="#378F3C"/>
<path d="M118.68 346.881C119.56 355.579 121.08 364.157 123.2 372.655C123.4 373.416 124.56 373.096 124.36 372.334C122.28 363.957 120.76 355.459 119.88 346.881C119.8 346.12 118.6 346.12 118.68 346.881Z" fill="#E8E8E8"/>
<path d="M123.437 373.056C131.317 375.1 139.517 375.1 147.397 373.056C148.157 372.855 147.837 371.693 147.077 371.893C139.397 373.897 131.437 373.897 123.757 371.893C123.037 371.693 122.717 372.855 123.437 373.056Z" fill="#E8E8E8"/>
<path d="M148.318 371.853C148.838 363.315 149.518 354.778 150.318 346.24C150.398 345.478 149.198 345.478 149.118 346.24C148.318 354.778 147.638 363.315 147.118 371.853C147.078 372.615 148.278 372.615 148.318 371.853Z" fill="#E8E8E8"/>
<path d="M119.36 347.522C129.32 349.567 139.56 349.487 149.52 347.242C150.28 347.082 149.96 345.919 149.2 346.08C139.48 348.244 129.44 348.364 119.68 346.36C118.92 346.2 118.6 347.362 119.36 347.522Z" fill="#E8E8E8"/>
<path d="M119.239 350.409C119.559 352.052 121.639 351.972 122.919 352.092C126.159 352.373 129.439 352.453 132.679 352.373C135.799 352.292 138.919 352.052 142.039 351.691C144.519 351.371 146.919 351.05 149.119 349.807C149.799 349.447 149.199 348.404 148.519 348.765C144.559 350.97 139.079 350.89 134.639 351.09C132.439 351.17 130.199 351.21 127.999 351.17C126.839 351.13 120.639 351.411 120.399 350.088C120.239 349.326 119.119 349.647 119.239 350.409Z" fill="#E8E8E8"/>
<path d="M121.52 364.317C123.44 367.725 125.88 370.731 128.8 373.336C129.36 373.857 130.24 373.016 129.64 372.494C126.76 369.969 124.4 367.043 122.56 363.716C122.2 363.035 121.16 363.636 121.52 364.317Z" fill="#E8E8E8"/>
<path d="M119.957 355.058C124.037 361.952 128.997 368.286 134.677 373.977C135.237 374.539 136.077 373.657 135.517 373.136C129.917 367.524 125.037 361.271 120.997 354.457C120.597 353.816 119.557 354.417 119.957 355.058Z" fill="#E8E8E8"/>
<path d="M126.637 352.172C130.877 359.748 135.797 366.923 141.357 373.617C141.837 374.218 142.677 373.376 142.197 372.775C136.717 366.161 131.837 359.066 127.677 351.571C127.317 350.889 126.277 351.491 126.637 352.172Z" fill="#E8E8E8"/>
<path d="M134.278 352.453C138.398 358.626 142.558 364.758 146.758 370.891C147.198 371.532 148.238 370.931 147.798 370.29C143.598 364.157 139.438 358.024 135.318 351.851C134.878 351.21 133.838 351.811 134.278 352.453Z" fill="#E8E8E8"/>
<path d="M140.68 352.092C142.76 355.459 145 358.746 147.32 361.952C147.76 362.554 148.8 361.952 148.36 361.351C146.04 358.145 143.8 354.858 141.72 351.491C141.32 350.849 140.28 351.451 140.68 352.092Z" fill="#E8E8E8"/>
<path d="M106.078 311.608C106.558 314.374 107.038 317.179 107.558 319.945C107.718 320.707 107.838 321.508 108.478 321.989C108.918 322.35 110.358 322.31 110.638 322.711C110.678 322.47 110.718 322.23 110.718 321.989C110.118 322.591 109.518 323.192 108.878 323.753C108.718 323.913 108.678 324.154 108.718 324.354C109.078 325.437 109.318 327.04 110.038 327.962C110.398 328.443 111.038 328.363 111.318 328.643C111.558 328.884 111.478 328.723 111.358 329.445C111.278 330.046 111.278 330.688 111.358 331.329C111.478 332.291 111.758 333.213 112.118 334.095C114.198 339.145 118.238 343.234 122.118 347.001C122.678 347.523 123.518 346.681 122.958 346.16C120.478 343.755 117.998 341.27 115.958 338.464C113.958 335.698 111.598 331.97 112.838 328.443C112.918 328.242 112.838 327.962 112.678 327.842C111.918 327.24 111.158 327.481 110.638 326.519C109.638 324.715 110.198 324.114 111.478 322.871C111.678 322.711 111.718 322.35 111.558 322.15C111.238 321.669 110.998 321.508 110.478 321.348C110.158 321.228 109.678 321.348 109.358 321.188C108.678 320.827 108.678 319.945 108.558 319.304C108.078 316.658 107.598 313.973 107.158 311.327C107.078 310.526 105.918 310.846 106.078 311.608Z" fill="#E8E8E8"/>
<path d="M106.961 311.447C122.561 316.658 133.241 331.249 133.561 347.763C133.561 348.525 134.761 348.525 134.761 347.763C134.441 330.728 123.401 315.696 107.281 310.285C106.561 310.045 106.241 311.207 106.961 311.447Z" fill="#E8E8E8"/>
<path d="M130.919 331.329C134.799 320.546 140.519 310.125 149.679 303.03C150.279 302.549 149.679 301.507 149.079 301.988C139.639 309.323 133.759 319.905 129.759 331.008C129.519 331.73 130.679 332.05 130.919 331.329Z" fill="#E8E8E8"/>
<path d="M148.638 302.79C148.918 306.477 149.238 310.165 149.518 313.893C149.598 314.654 150.798 314.654 150.718 313.893C150.438 310.205 150.118 306.517 149.838 302.79C149.798 302.028 148.598 302.028 148.638 302.79Z" fill="#E8E8E8"/>
<path d="M150.041 313.492C149.521 313.612 149 313.732 148.52 313.893C147.76 314.093 148.081 315.255 148.841 315.055C149.361 314.935 149.88 314.814 150.36 314.654C151.12 314.454 150.8 313.331 150.041 313.492Z" fill="#E8E8E8"/>
<path d="M147.919 314.975C148.079 315.736 148.719 316.217 149.439 316.298C149.759 316.338 150.039 316.017 150.039 315.696C150.039 315.336 149.759 315.135 149.439 315.095C149.559 315.095 149.439 315.095 149.399 315.095C149.359 315.095 149.279 315.055 149.359 315.095C149.319 315.055 149.279 315.055 149.239 315.015C149.159 314.975 149.319 315.095 149.199 314.975C149.159 314.935 149.159 314.935 149.119 314.895C149.199 314.975 149.119 314.895 149.119 314.855C149.079 314.814 149.079 314.734 149.079 314.814C149.079 314.774 149.039 314.694 149.039 314.654C148.959 314.333 148.599 314.133 148.319 314.253C147.999 314.333 147.839 314.654 147.919 314.975Z" fill="#E8E8E8"/>
<path d="M148.839 315.857C148.879 318.141 148.799 320.386 148.559 322.631C148.479 323.352 148.599 325.036 148.119 325.597C148.079 325.637 147.359 325.757 147.199 325.878C146.599 326.359 147.439 327.2 148.039 326.719C148.239 326.559 148.719 326.719 149.039 326.359C149.519 325.878 149.439 324.755 149.519 324.194C149.879 321.428 150.039 318.622 149.999 315.817C150.039 315.095 148.839 315.095 148.839 315.857Z" fill="#E8E8E8"/>
<path d="M146.721 326.92C148.001 328.443 147.641 330.968 147.521 332.812C147.361 334.936 147.001 336.9 145.961 338.744C144.481 341.47 142.401 343.755 141.321 346.721C141.041 347.442 142.201 347.763 142.481 347.042C143.921 343.153 147.241 340.267 148.241 336.179C148.961 333.253 149.641 328.563 147.561 326.078C147.081 325.517 146.241 326.359 146.721 326.92Z" fill="#E8E8E8"/>
<path d="M137.278 347.282C138.398 335.898 141.398 324.795 146.198 314.454C146.518 313.772 145.478 313.131 145.158 313.852C140.278 324.434 137.198 335.698 136.078 347.322C135.998 348.084 137.198 348.044 137.278 347.282Z" fill="#E8E8E8"/>
<path d="M113.678 318.141C120.678 326.96 125.798 337.101 128.798 347.923C128.998 348.685 130.158 348.364 129.958 347.603C126.878 336.54 121.638 326.278 114.518 317.3C114.038 316.698 113.198 317.54 113.678 318.141Z" fill="#E8E8E8"/>
<path d="M114.44 332.932C117.8 332.732 120.92 333.533 123.76 335.297C124.4 335.698 125.04 334.656 124.36 334.255C121.36 332.411 117.96 331.529 114.44 331.73C113.64 331.77 113.64 332.972 114.44 332.932Z" fill="#E8E8E8"/>
<path d="M121.759 327.561C121.519 325.356 121.799 323.232 122.639 321.148C122.919 320.426 121.759 320.105 121.479 320.827C120.599 322.991 120.319 325.236 120.559 327.561C120.639 328.322 121.839 328.322 121.759 327.561Z" fill="#E8E8E8"/>
<path d="M134.719 320.907C136.039 324.154 137.959 327.601 138.439 331.048C138.559 331.81 139.719 331.489 139.599 330.728C139.079 327.24 137.159 323.793 135.879 320.586C135.599 319.865 134.439 320.186 134.719 320.907Z" fill="#E8E8E8"/>
<path d="M142.078 324.715C143.238 323.392 144.358 321.829 145.838 320.827C147.078 319.985 148.438 319.424 149.398 318.262C149.878 317.66 149.038 316.819 148.558 317.42C147.518 318.663 145.998 319.184 144.758 320.146C143.398 321.188 142.358 322.591 141.238 323.873C140.718 324.475 141.558 325.316 142.078 324.715Z" fill="#E8E8E8"/>
<path d="M142.479 346.881C144.399 346.36 146.359 346.16 148.36 346.28C149.12 346.32 149.12 345.118 148.36 345.077C146.239 344.957 144.199 345.158 142.159 345.719C141.439 345.919 141.719 347.082 142.479 346.881Z" fill="#E8E8E8"/>
<path d="M142.32 347.362C144.56 347.563 146.72 347.282 148.88 346.601C149.6 346.36 149.28 345.198 148.56 345.438C146.52 346.079 144.44 346.32 142.32 346.16C141.56 346.12 141.56 347.322 142.32 347.362Z" fill="#E8E8E8"/>
<path d="M119.879 347.162C120.399 347.162 120.879 347.162 121.399 347.162C122.159 347.162 122.159 345.959 121.399 345.959C120.879 345.959 120.399 345.959 119.879 345.959C119.119 345.959 119.119 347.162 119.879 347.162Z" fill="#E8E8E8"/>
<path d="M149.199 356.862C161.879 356.862 174.599 356.862 187.279 356.862C188.039 356.862 188.039 355.659 187.279 355.659C174.599 355.659 161.879 355.659 149.199 355.659C148.439 355.659 148.439 356.862 149.199 356.862Z" fill="#E8E8E8"/>
<path d="M363.84 348.925C371.4 348.925 378.92 348.925 386.48 348.925C387.24 348.925 387.24 347.723 386.48 347.723C378.92 347.723 371.4 347.723 363.84 347.723C363.08 347.723 363.08 348.925 363.84 348.925Z" fill="#E8E8E8"/>
<path d="M432.48 349.647C465.08 349.647 497.68 349.647 530.28 349.647C539.56 349.647 548.84 349.647 558.12 349.647C558.88 349.647 558.88 348.444 558.12 348.444C525.52 348.444 492.92 348.444 460.32 348.444C451.04 348.444 441.76 348.444 432.48 348.444C431.72 348.444 431.72 349.647 432.48 349.647Z" fill="#E8E8E8"/>
<path d="M384.201 218.053C381.161 224.346 377.881 230.519 374.401 236.572C374.241 236.892 374.361 237.414 374.761 237.454C391.921 240.059 407.281 248.597 422.081 257.215C422.761 257.616 423.361 256.573 422.681 256.173C407.761 247.515 392.321 238.937 375.041 236.291C375.161 236.572 375.281 236.892 375.401 237.173C378.921 231.12 382.161 224.948 385.201 218.654C385.561 217.973 384.561 217.332 384.201 218.053Z" fill="#E8E8E8"/>
<path d="M386.841 239.899C388.041 236.452 389.241 232.964 390.441 229.517C390.961 228.074 391.321 226.471 392.001 225.068C392.161 224.226 392.681 223.585 393.481 223.104C393.961 223.224 394.441 223.344 394.921 223.465C395.641 223.665 396.361 223.825 397.041 224.026C398.681 224.427 401.321 224.427 401.041 226.631C400.841 228.194 399.921 229.878 399.401 231.401C398.201 234.808 397.041 238.215 395.841 241.622C395.601 242.344 396.761 242.664 397.001 241.943C398.561 237.454 400.121 232.924 401.681 228.435C402.041 227.393 403.041 225.629 402.241 224.507C401.361 223.304 398.721 223.224 397.361 222.863C396.041 222.543 393.721 221.34 392.361 221.981C391.201 222.503 390.961 224.507 390.601 225.509C388.961 230.199 387.321 234.928 385.681 239.618C385.441 240.3 386.601 240.62 386.841 239.899Z" fill="#E8E8E8"/>
<path d="M402.28 244.188C404.84 238.776 407.44 233.325 410 227.914C411.28 225.188 412.56 222.503 413.88 219.777C414.48 218.534 414.96 217.051 415.72 215.889C416.36 214.887 416.52 214.646 417.64 215.087C418.24 215.328 418.96 215.929 419.48 216.29C420.16 216.771 421.24 217.292 421.72 217.933C422.32 218.695 422.08 219.496 421.72 220.458C421.24 221.741 420.52 222.984 419.92 224.226C418.6 226.952 417.28 229.677 415.88 232.403C413.24 237.574 410.48 242.705 407.64 247.795C407.24 248.477 408.28 249.078 408.68 248.396C412.16 242.224 415.48 235.971 418.6 229.637C420.16 226.511 421.88 223.304 423.2 220.057C424.12 217.693 422.12 216.731 420.36 215.488C418.96 214.526 416.76 212.321 415.24 214.125C414.28 215.247 413.76 217.131 413.12 218.494C412.32 220.138 411.56 221.781 410.76 223.465C407.56 230.199 404.36 236.933 401.2 243.667C400.92 244.268 401.96 244.909 402.28 244.188Z" fill="#E8E8E8"/>
<path d="M415.56 252.525C419 247.114 422.88 241.983 427.16 237.253C426.92 237.293 426.68 237.333 426.44 237.333C427.96 238.375 429.44 239.378 430.96 240.42C430.88 240.139 430.8 239.859 430.76 239.578C427.36 244.909 423.96 250.2 420.56 255.531C420.16 256.173 421.16 256.774 421.6 256.132C425 250.801 428.4 245.51 431.8 240.179C432 239.899 431.84 239.538 431.6 239.337C430.08 238.295 428.6 237.293 427.08 236.251C426.88 236.091 426.52 236.171 426.36 236.331C422 241.181 418.04 246.352 414.56 251.844C414.12 252.605 415.16 253.206 415.56 252.525Z" fill="#E8E8E8"/>
<path d="M463.277 214.406C459.277 212.882 456.757 208.874 457.477 204.585C458.197 200.216 462.477 196.328 466.877 198.933C469.918 200.737 471.478 204.826 470.318 208.153C469.118 211.72 465.198 213.844 461.557 213.283C460.797 213.163 460.477 214.325 461.237 214.446C465.517 215.087 470.038 212.722 471.478 208.473C472.918 204.224 470.598 199.094 466.437 197.37C461.557 195.366 457.117 199.575 456.277 204.265C455.397 209.235 458.317 213.804 462.917 215.568C463.678 215.849 463.997 214.686 463.277 214.406Z" fill="#E8E8E8"/>
<path d="M471.479 213.644C463.519 213.404 466.519 200.617 473.559 201.098C480.599 201.619 477.719 216.009 469.999 213.364C469.279 213.123 468.959 214.286 469.679 214.526C478.599 217.572 482.599 201.299 474.079 199.936C469.919 199.254 466.159 203.182 465.519 207.071C464.879 210.919 467.479 214.686 471.479 214.807C472.239 214.887 472.239 213.684 471.479 213.644Z" fill="#E8E8E8"/>
<path d="M465.518 177.369C464.838 176.647 464.518 175.485 465.038 174.603C465.558 173.761 466.838 173.36 467.638 174.002C468.358 174.563 468.518 175.765 467.838 176.367C467.038 177.088 465.758 176.727 464.998 176.126C464.398 175.645 463.558 176.487 464.158 176.968C465.398 177.93 467.318 178.411 468.638 177.248C469.838 176.166 469.718 174.162 468.518 173.12C467.278 172.038 465.318 172.358 464.278 173.561C463.118 174.924 463.438 176.968 464.638 178.21C465.198 178.772 466.038 177.93 465.518 177.369Z" fill="#E8E8E8"/>
<path d="M349.44 207.551C348.32 200.737 352.28 192.52 359.96 192.6C363.88 192.64 367.679 194.244 371.639 193.683C374.439 193.282 376.839 191.678 378.519 189.474C380.199 187.269 381.159 184.504 381.319 181.738C381.519 177.649 379.96 173.481 381.08 169.432C381.639 167.388 382.84 165.504 384.879 164.742C386.839 164.061 388.959 164.462 390.999 164.382C393.959 164.261 396.279 162.979 397.759 160.373C399.839 156.726 399.359 152.357 400.799 148.509C402.519 143.859 407.359 139.891 412.479 142.176C413.159 142.496 413.799 141.454 413.079 141.133C406.119 138.007 400.319 144.3 398.959 150.633C398.079 154.762 398.239 161.175 393.319 162.818C389.879 163.981 385.999 162.177 382.839 164.542C380.239 166.466 379.479 169.993 379.519 173.08C379.639 177.609 381.039 182.018 379.039 186.347C377.199 190.436 373.559 192.881 369.039 192.6C365.039 192.36 361.079 190.716 357.039 191.759C350.2 193.482 347.28 201.579 348.36 207.912C348.44 208.594 349.6 208.273 349.44 207.551Z" fill="#E8E8E8"/>
<path d="M400.001 178.972C398.521 175.605 400.561 172.398 403.801 171.316C406.161 170.514 408.761 170.474 410.801 168.871C412.401 167.628 412.921 166.065 412.721 164.061C412.521 162.177 412.521 160.694 414.001 159.411C415.241 158.329 416.881 157.928 418.481 157.848C422.881 157.688 428.921 159.932 432.121 155.644C433.601 153.639 433.161 151.154 433.841 148.91C434.761 145.783 437.761 143.859 440.961 144.019C441.721 144.059 441.721 142.857 440.961 142.817C438.521 142.697 436.161 143.619 434.481 145.382C432.401 147.587 432.681 150.072 432.041 152.838C430.321 160.413 419.801 155.082 414.841 157.447C413.001 158.329 411.521 159.892 411.361 161.977C411.161 164.422 412.281 166.426 409.801 168.109C408.481 168.991 406.961 169.272 405.441 169.633C402.921 170.234 400.441 170.995 399.161 173.441C398.121 175.365 398.121 177.569 399.001 179.533C399.281 180.295 400.281 179.653 400.001 178.972Z" fill="#E8E8E8"/>
<path d="M471.28 125.581C471.12 125.22 470.96 124.82 470.84 124.419C471.36 123.817 471.84 123.216 472.36 122.615C472.52 122.575 473.24 123.056 473.48 123.056C474.08 123.136 474.6 122.976 475.08 122.615C476.56 121.453 476.04 119.609 476.48 118.045C477.2 115.36 480.36 117.204 481.8 115.2C483.24 113.235 482.72 109.067 486.56 110.189C487.32 110.39 487.64 109.227 486.88 109.027C484.68 108.385 482.68 109.428 481.88 111.552C481.64 112.153 481.56 112.835 481.32 113.436C480.8 114.839 480.24 115.039 478.72 115.119C477.6 115.2 476.72 115.119 475.96 116.081C475.32 116.923 475.32 118.005 475.2 119.007C475.08 120.491 475.2 121.733 473 121.573C472.56 121.533 472.2 121.132 471.72 121.132C469.08 121.092 469.52 124.339 470.16 125.902C470.4 126.623 471.6 126.303 471.28 125.581Z" fill="#E8E8E8"/>
<path d="M478.801 128.908C478.161 128.066 477.081 125.621 478.961 124.98C479.641 124.739 480.521 125.02 481.241 125.02C481.881 125.02 482.441 125.02 482.961 124.579C484.561 123.296 483.401 121.012 484.241 119.408C485.6 116.803 488.32 118.847 490.24 117.484C491.6 116.522 491.96 114.678 492.2 113.155C492.32 112.394 491.16 112.073 491.04 112.835C490.76 114.638 490.44 116.642 488.2 116.843C487.041 116.963 486.16 116.562 485.08 117.083C483.321 117.925 482.761 119.488 482.721 121.292C482.681 122.815 483.041 123.577 480.481 123.697C480.161 123.697 479.841 123.617 479.521 123.617C478.601 123.697 477.801 124.178 477.281 124.94C476.161 126.543 476.801 128.387 477.921 129.79C478.441 130.391 479.281 129.509 478.801 128.908Z" fill="#E8E8E8"/>
<path d="M138.719 150.633C142.039 146.625 146.759 143.338 152.199 143.899C158.119 144.5 161.039 149.23 161.599 154.762C162.559 163.941 160.319 174.924 166.519 182.74C168.959 185.826 172.599 187.47 176.519 186.508C181.239 185.385 184.919 181.658 189.119 179.453C194.079 176.848 200.919 175.445 205.399 179.814C208.679 183.02 209.399 187.911 210.479 192.159C211.479 196.007 213.199 200.256 216.639 202.541C218.719 203.904 220.999 204.024 223.399 203.864C226.079 203.663 231.559 203.503 230.999 207.712C230.919 208.473 232.119 208.473 232.199 207.712C232.399 206.068 231.639 204.746 230.319 203.784C228.239 202.26 225.839 202.501 223.399 202.661C220.639 202.862 218.279 202.621 216.159 200.657C214.239 198.893 213.079 196.408 212.239 193.963C210.839 189.754 210.439 185.145 208.039 181.297C205.679 177.489 201.599 175.645 197.199 175.805C191.639 176.006 186.959 179.213 182.519 182.179C180.399 183.582 178.119 185.065 175.519 185.506C172.399 186.027 169.639 184.664 167.639 182.339C163.879 177.93 163.279 171.637 163.079 166.105C162.879 160.935 163.559 155.323 161.839 150.312C160.279 145.743 156.319 142.897 151.559 142.657C146.039 142.376 141.199 145.703 137.799 149.791C137.359 150.393 138.199 151.234 138.719 150.633Z" fill="#E8E8E8"/>
<path d="M118.52 212.482C124.76 222.903 130.32 233.686 135.24 244.789C135.56 245.51 136.6 244.869 136.28 244.188C131.36 233.085 125.76 222.302 119.56 211.88C119.16 211.199 118.12 211.8 118.52 212.482Z" fill="#E8E8E8"/>
<path d="M119.278 212.001C128.998 205.948 138.998 200.296 149.278 195.166C149.958 194.805 149.358 193.763 148.678 194.124C138.438 199.254 128.438 204.906 118.678 210.958C117.998 211.399 118.598 212.442 119.278 212.001Z" fill="#E8E8E8"/>
<path d="M148.558 194.645C153.638 205.347 158.998 215.889 164.678 226.27C165.038 226.952 166.078 226.35 165.718 225.669C160.038 215.287 154.638 204.746 149.598 194.043C149.238 193.322 148.238 193.923 148.558 194.645Z" fill="#E8E8E8"/>
<path d="M136.6 245.029C146.16 239.257 155.6 233.325 164.96 227.232C165.6 226.832 165 225.789 164.36 226.19C155 232.283 145.56 238.215 136 243.987C135.36 244.388 135.96 245.43 136.6 245.029Z" fill="#E8E8E8"/>
<path d="M135.841 208.473C135.601 216.169 136.041 223.825 137.161 231.441C137.281 232.203 138.441 231.882 138.321 231.121C137.201 223.625 136.801 216.049 137.041 208.473C137.081 207.712 135.881 207.712 135.841 208.473Z" fill="#E8E8E8"/>
<path d="M135.878 208.073C141.438 212.442 146.998 216.731 152.638 220.979C153.238 221.46 153.838 220.418 153.238 219.937C147.678 215.769 142.158 211.52 136.718 207.231C136.118 206.75 135.278 207.592 135.878 208.073Z" fill="#E8E8E8"/>
<path d="M138.401 231.682C143.001 227.553 149.001 225.348 153.361 220.899C153.921 220.338 153.041 219.496 152.521 220.058C148.161 224.467 142.201 226.711 137.561 230.84C136.961 231.321 137.841 232.163 138.401 231.682Z" fill="#E8E8E8"/>
<path d="M120.118 218.775C121.398 218.133 122.678 217.532 123.958 216.891C124.638 216.57 124.038 215.528 123.358 215.849C122.078 216.49 120.798 217.091 119.518 217.733C118.838 218.093 119.438 219.095 120.118 218.775Z" fill="#E8E8E8"/>
<path d="M124.239 225.589C125.319 224.867 126.479 224.266 127.679 223.745C128.399 223.465 128.079 222.302 127.359 222.583C126.039 223.144 124.799 223.785 123.599 224.547C122.999 224.988 123.599 226.03 124.239 225.589Z" fill="#E8E8E8"/>
<path d="M128.759 233.445C129.879 232.884 130.999 232.323 132.119 231.802C132.799 231.441 132.199 230.439 131.519 230.76C130.399 231.321 129.279 231.882 128.159 232.403C127.479 232.724 128.079 233.766 128.759 233.445Z" fill="#E8E8E8"/>
<path d="M131.078 241.302C132.318 240.219 133.598 239.297 135.038 238.496C135.718 238.095 135.118 237.093 134.438 237.454C132.958 238.295 131.558 239.298 130.238 240.46C129.638 240.981 130.478 241.823 131.078 241.302Z" fill="#E8E8E8"/>
<path d="M150.841 202.541C151.761 201.9 152.721 201.459 153.801 201.178C154.561 200.978 154.241 199.856 153.481 200.016C152.321 200.296 151.201 200.777 150.201 201.499C149.601 201.94 150.201 202.982 150.841 202.541Z" fill="#E8E8E8"/>
<path d="M154.399 209.395C155.679 208.594 156.959 207.792 158.199 206.95C158.839 206.549 158.239 205.507 157.599 205.908C156.319 206.71 155.039 207.511 153.799 208.353C153.119 208.794 153.719 209.836 154.399 209.395Z" fill="#E8E8E8"/>
<path d="M158.479 217.612C159.839 217.011 161.239 216.41 162.599 215.809C163.319 215.488 162.679 214.446 161.999 214.767C160.639 215.368 159.239 215.969 157.879 216.57C157.159 216.891 157.799 217.933 158.479 217.612Z" fill="#E8E8E8"/>
<path d="M161.4 222.984C162.48 221.941 163.68 221.06 165 220.298C165.68 219.937 165.08 218.895 164.4 219.256C163 220.057 161.72 220.979 160.56 222.102C160 222.663 160.84 223.505 161.4 222.984Z" fill="#E8E8E8"/>
<path d="M140.001 239.738C141.001 241.221 141.841 242.785 142.481 244.428C142.761 245.15 143.921 244.829 143.641 244.107C142.961 242.344 142.121 240.66 141.041 239.097C140.601 238.496 139.561 239.097 140.001 239.738Z" fill="#E8E8E8"/>
<path d="M146.118 236.411C146.878 237.774 147.598 239.097 148.358 240.46C148.718 241.141 149.758 240.54 149.398 239.859C148.638 238.496 147.918 237.173 147.158 235.81C146.798 235.129 145.758 235.73 146.118 236.411Z" fill="#E8E8E8"/>
<path d="M153.2 231.321C154 232.764 154.8 234.207 155.6 235.65C155.96 236.331 157 235.73 156.64 235.049C155.84 233.606 155.04 232.163 154.24 230.72C153.88 230.038 152.84 230.639 153.2 231.321Z" fill="#E8E8E8"/>
<path d="M159.56 227.513C160.2 229.036 160.84 230.559 161.52 232.042C161.84 232.764 162.84 232.123 162.56 231.441C161.92 229.918 161.28 228.395 160.6 226.912C160.28 226.23 159.24 226.832 159.56 227.513Z" fill="#E8E8E8"/>
<path d="M123.277 205.828C124.037 207.07 124.757 208.313 125.517 209.516C125.917 210.197 126.957 209.556 126.557 208.914C125.797 207.672 125.077 206.429 124.317 205.227C123.917 204.585 122.877 205.186 123.277 205.828Z" fill="#E8E8E8"/>
<path d="M130.16 201.82C130.88 203.423 131.6 205.026 132.32 206.63C132.64 207.351 133.68 206.71 133.36 206.028C132.64 204.425 131.92 202.822 131.2 201.218C130.84 200.497 129.84 201.098 130.16 201.82Z" fill="#E8E8E8"/>
<path d="M136.36 197.972C137.44 199.415 138.28 200.978 138.84 202.661C139.08 203.383 140.24 203.062 140 202.341C139.4 200.537 138.56 198.853 137.4 197.37C136.96 196.769 135.92 197.33 136.36 197.972Z" fill="#E8E8E8"/>
<path d="M143.04 194.885C143.88 196.168 144.68 197.41 145.52 198.693C145.92 199.334 146.96 198.733 146.56 198.092C145.72 196.809 144.92 195.567 144.08 194.284C143.64 193.643 142.6 194.244 143.04 194.885Z" fill="#E8E8E8"/>
<path d="M205.241 115.4C201.361 114.197 201.161 110.069 203.001 106.982C204.801 103.976 208.281 103.174 211.001 105.66C213.241 107.744 213.441 111.311 211.361 113.596C209.281 115.921 205.881 115.881 203.481 114.117C202.881 113.636 202.281 114.678 202.881 115.159C205.921 117.404 210.361 117.043 212.641 113.877C215.001 110.67 214.161 106.181 210.841 104.016C202.841 98.8454 195.961 113.756 204.921 116.562C205.681 116.803 206.001 115.64 205.241 115.4Z" fill="#E8E8E8"/>
<path d="M211.679 116.442C208.679 117.364 207.959 113.756 209.279 111.832C210.359 110.269 212.479 109.347 214.399 109.868C216.239 110.349 217.559 112.233 217.079 114.117C216.479 116.482 213.999 117.324 211.799 116.963C211.039 116.843 210.719 118.005 211.479 118.126C214.439 118.647 217.639 117.364 218.279 114.157C218.839 111.392 216.679 108.866 213.999 108.546C211.039 108.185 207.799 110.349 207.399 113.396C207.039 116.041 209.439 118.406 212.079 117.564C212.759 117.364 212.439 116.202 211.679 116.442Z" fill="#E8E8E8"/>
<path d="M186.159 142.536C185.199 144.5 186.559 146.464 188.559 146.986C190.079 147.386 191.679 147.026 193.239 147.106C194.919 147.186 196.599 147.587 198.119 148.268C201.479 149.791 203.639 152.557 203.759 156.285C203.879 159.411 202.959 162.658 204.319 165.624C207.199 171.877 215.119 167.107 219.199 171.156C222.599 174.563 221.199 180.776 225.759 183.381C226.439 183.782 227.039 182.74 226.359 182.339C222.279 180.014 223.239 173.962 220.359 170.595C218.839 168.831 216.639 168.35 214.399 168.19C211.679 168.029 208.159 168.59 206.159 166.266C203.839 163.54 205.079 159.451 204.959 156.245C204.879 153.72 204.039 151.435 202.279 149.631C200.719 148.068 198.679 146.986 196.559 146.424C195.479 146.144 194.359 145.943 193.239 145.903C191.799 145.823 185.559 146.545 187.239 143.138C187.559 142.456 186.519 141.855 186.159 142.536Z" fill="#E8E8E8"/>
<path d="M92.6391 358.906C99.8791 358.906 107.079 358.906 114.319 358.906C115.079 358.906 115.079 357.704 114.319 357.704C107.079 357.704 99.8791 357.704 92.6391 357.704C91.8391 357.704 91.8391 358.906 92.6391 358.906Z" fill="#E8E8E8"/>
<path d="M104.319 386.083C118.239 386.083 132.119 386.083 146.039 386.083C146.799 386.083 146.799 384.88 146.039 384.88C132.119 384.88 118.239 384.88 104.319 384.88C103.519 384.88 103.519 386.083 104.319 386.083Z" fill="#E8E8E8"/>
<path d="M144.358 378.547C157.278 378.547 170.238 378.547 183.158 378.547C183.918 378.547 183.918 377.344 183.158 377.344C170.238 377.344 157.278 377.344 144.358 377.344C143.558 377.344 143.558 378.547 144.358 378.547Z" fill="#E8E8E8"/>
<path d="M359.52 376.463C366.04 374.859 372.6 374.699 379.24 375.741C382.04 376.182 384.88 376.623 387.72 376.382C390.48 376.142 393.16 375.3 395.84 374.579C398.88 373.737 401.92 373.096 405.12 373.336C408.4 373.577 411.56 374.499 414.76 375.22C417.52 375.861 420.32 376.302 423.16 376.262C426.16 376.182 429.12 375.661 432.04 375.22C440.04 373.937 447.56 374.739 455.48 376.062C456.24 376.182 456.56 375.02 455.8 374.899C449.4 373.857 442.96 372.775 436.44 373.416C429.64 374.098 423.32 375.781 416.44 374.378C410.68 373.216 405.2 371.412 399.28 372.534C396.12 373.136 393.12 374.258 389.96 374.859C386.44 375.541 383.04 375.14 379.52 374.579C372.68 373.537 365.92 373.617 359.16 375.3C358.48 375.501 358.8 376.663 359.52 376.463Z" fill="#E8E8E8"/>
<path d="M420.958 364.277C433.518 363.596 446.078 362.914 458.638 362.273C464.838 361.952 470.838 362.073 476.998 362.914C479.758 363.275 482.398 363.355 485.158 363.035C488.238 362.674 491.438 362.193 494.318 363.676C494.998 364.037 495.598 362.995 494.918 362.634C490.038 360.149 484.398 362.473 479.158 361.992C476.038 361.712 472.998 361.111 469.878 360.95C466.638 360.79 463.398 360.87 460.158 361.03C447.078 361.632 433.998 362.433 420.918 363.115C420.198 363.115 420.198 364.317 420.958 364.277Z" fill="#E8E8E8"/>
<path d="M174.999 398.709C180.919 399.27 186.879 399.831 192.799 399.15C195.559 398.829 198.199 398.228 200.879 397.426C204.359 396.384 207.479 396.103 211.079 396.745C213.839 397.226 216.559 397.907 219.319 398.148C222.239 398.388 225.159 398.228 228.079 397.947C234.199 397.346 240.319 396.304 246.399 397.667C247.159 397.827 247.479 396.665 246.719 396.504C240.879 395.222 235.039 396.063 229.159 396.665C226.239 396.945 223.319 397.226 220.399 397.065C217.079 396.905 213.879 396.023 210.639 395.502C207.919 395.061 205.319 395.061 202.639 395.703C199.759 396.424 197.039 397.386 194.079 397.827C187.759 398.749 181.319 398.108 174.999 397.546C174.199 397.426 174.239 398.629 174.999 398.709Z" fill="#E8E8E8"/>
<path d="M238.278 75.2765C236.718 74.1942 234.598 72.4706 235.238 70.3061C235.918 68.0615 237.598 69.1437 239.158 68.6226C241.238 67.9412 241.118 65.416 240.518 63.7726C239.918 62.1692 238.638 58.2811 241.958 59.6039C242.718 59.9246 243.278 60.4456 244.158 60.1651C244.958 59.9246 245.358 59.2031 245.558 58.4415C245.718 57.7601 245.598 57.0386 245.558 56.3171C245.478 55.8361 245.438 55.315 245.438 54.834C245.278 53.6716 245.998 53.1906 247.518 53.391C247.558 54.1526 248.758 54.1526 248.718 53.391C248.638 52.2686 247.798 51.467 246.598 51.5071C245.198 51.5471 244.438 52.91 244.278 54.1926C244.158 55.0745 244.878 57.1187 244.478 57.8402C243.998 58.1609 243.518 58.5216 242.998 58.8423C242.798 58.7221 242.598 58.6018 242.398 58.4816C242.038 58.3613 241.758 58.1208 241.398 58.0406C240.158 57.7601 239.158 58.5216 238.718 59.644C237.958 61.568 239.318 63.1713 239.718 64.9751C240.238 67.4602 238.358 67.1796 236.718 67.4602C235.998 67.5805 235.398 67.9412 234.918 68.4623C232.398 71.3884 235.318 74.6351 237.718 76.3186C238.318 76.7596 238.918 75.7174 238.278 75.2765Z" fill="#E8E8E8"/>
<path d="M246.16 74.1542C244.84 72.631 243.84 70.5467 246.4 69.745C247.04 69.5446 247.76 69.6248 248.36 69.224C249.68 68.302 249.12 67.0595 248.88 65.7768C248.76 65.0553 248.48 64.0933 248.92 63.3718C249.24 62.8507 250.4 62.6503 251 62.53C251.84 62.3296 252.72 62.2094 253.44 61.7284C254.52 60.9668 254.92 59.604 254.2 58.4415C253.8 57.8002 252.76 58.4015 253.16 59.0428C254.36 60.9668 248.76 61.4879 247.8 62.8908C246.68 64.5342 249.04 67.4202 247.08 68.4624C246.32 68.8632 245.36 68.5826 244.64 69.1037C244.12 69.4645 243.76 70.0256 243.6 70.6269C243.16 72.3505 244.32 73.8335 245.36 75.036C245.84 75.5972 246.68 74.7555 246.16 74.1542Z" fill="#E8E8E8"/>
<path d="M198.917 64.6544C197.877 63.9329 197.757 62.6503 198.077 61.5279C198.277 60.7663 199.237 58.682 200.157 58.6018C201.677 58.4415 202.437 60.3655 202.837 61.4878C203.197 62.5701 203.317 63.6523 203.357 64.7747C203.357 65.5363 204.557 65.5363 204.557 64.7747C204.517 62.53 203.037 55.6357 199.357 57.6398C197.957 58.4014 196.917 60.606 196.757 62.1292C196.597 63.5722 197.157 64.8548 198.317 65.6966C198.917 66.1375 199.517 65.0953 198.917 64.6544Z" fill="#E8E8E8"/>
<path d="M198.439 65.2957C196.999 65.6564 195.559 66.0172 194.079 66.3779C193.239 66.5783 191.799 66.6585 191.119 67.2998C189.959 68.3821 190.279 71.709 190.279 73.1119C190.279 73.5127 190.679 73.7933 191.039 73.6731C191.239 73.633 191.439 73.5528 191.679 73.5127C192.719 72.9516 193.239 73.3123 193.279 74.5148C194.079 75.3165 194.079 75.7975 193.279 75.8777C192.799 76.0781 192.319 76.1582 191.799 76.1582C191.479 76.1983 191.199 76.3988 191.199 76.7595C191.279 79.3248 191.479 81.8501 191.759 84.4154C191.839 85.177 193.039 85.177 192.959 84.4154C192.679 81.8501 192.479 79.3248 192.399 76.7595C192.199 76.9599 191.999 77.1603 191.799 77.3607C193.479 77.1603 196.159 76.4789 195.799 74.1942C195.399 71.7491 192.439 72.0297 190.759 72.5107C190.999 72.7111 191.279 72.9115 191.519 73.0718C191.519 72.1499 191.519 71.2681 191.599 70.3462C191.719 68.9032 191.639 68.3821 192.959 67.861C194.759 67.1395 196.879 66.899 198.759 66.418C199.519 66.2978 199.199 65.1353 198.439 65.2957Z" fill="#E8E8E8"/>
<path d="M204.199 65.6564C205.879 65.5763 207.599 65.5763 209.279 65.7767C210.879 65.9771 210.799 66.2176 211.039 67.6205C211.199 68.5023 211.239 69.4242 211.319 70.3061C211.639 73.7533 211.879 77.2004 212.079 80.6476C212.119 81.4092 213.319 81.4092 213.279 80.6476C213.039 75.9578 212.879 71.1478 212.119 66.4982C211.919 65.3357 211.719 64.975 210.519 64.7746C208.439 64.3738 206.279 64.3737 204.199 64.494C203.439 64.494 203.439 65.6965 204.199 65.6564Z" fill="#E8E8E8"/>
<path d="M192.637 85.2573C194.997 84.8564 197.357 84.4556 199.677 84.0548C202.357 83.6139 204.917 83.8143 207.597 83.6139C208.837 83.4936 214.717 82.8924 212.557 80.4473C212.037 79.8861 211.197 80.7279 211.717 81.289C212.037 81.6498 206.597 82.4514 206.477 82.4514C204.797 82.4915 203.117 82.4114 201.437 82.6118C198.397 82.9725 195.357 83.6139 192.317 84.1349C191.557 84.2151 191.877 85.3775 192.637 85.2573Z" fill="#E8E8E8"/>
<path d="M366.838 106.341C361.798 104.297 358.758 99.4066 356.918 94.5164C354.958 89.4258 354.118 83.8943 354.398 78.443C354.878 68.3821 359.158 58.2009 367.078 51.7876C374.558 45.6949 385.638 43.9713 393.958 49.5028C402.638 55.2748 404.198 67.1796 404.278 76.7595C404.358 87.4216 401.878 98.6049 393.998 106.261C393.438 106.782 394.278 107.664 394.838 107.103C402.318 99.8074 405.158 89.3857 405.438 79.2046C405.718 69.2238 404.518 56.5976 396.318 49.7433C388.638 43.33 377.238 43.6507 369.038 48.8615C359.958 54.6335 354.598 65.0952 353.438 75.6371C352.718 82.1707 353.518 88.9448 355.918 95.1176C357.958 100.328 361.198 105.299 366.558 107.463C367.238 107.784 367.518 106.622 366.838 106.341Z" fill="#161616"/>
<path d="M366.278 107.103C364.918 109.027 365.198 111.873 367.198 113.316C368.718 114.398 370.958 114.558 372.758 114.799C374.918 115.119 377.118 115.24 379.318 115.24C383.238 115.199 387.718 114.919 391.358 113.396C393.998 112.273 395.998 109.628 394.598 106.782C394.278 106.101 393.238 106.702 393.558 107.383C396.558 113.516 382.358 114.037 379.278 114.037C376.438 114.037 373.598 113.797 370.838 113.275C369.518 113.035 368.038 112.794 367.198 111.632C366.358 110.43 366.518 108.866 367.318 107.744C367.758 107.063 366.718 106.461 366.278 107.103Z" fill="#161616"/>
<path d="M367.559 113.596C367.559 115.6 367.599 117.645 367.839 119.649C367.959 120.571 368.159 121.372 368.919 121.933C369.999 122.735 371.799 122.695 373.079 122.815C375.239 122.976 377.439 122.976 379.599 122.895C381.639 122.815 383.679 122.655 385.719 122.455C386.919 122.334 388.279 122.374 389.199 121.452C391.239 119.448 391.279 115.64 390.759 113.115C390.599 112.354 389.439 112.674 389.599 113.436C389.879 114.799 389.959 116.161 389.679 117.564C389.279 119.528 388.719 120.811 386.519 121.212C383.959 121.693 381.079 121.693 378.479 121.733C375.919 121.773 373.039 121.893 370.519 121.292C368.199 120.731 368.799 115.52 368.799 113.596C368.759 112.835 367.559 112.835 367.559 113.596Z" fill="#161616"/>
<path d="M367.96 70.4264C372.76 73.4327 376.4 77.8418 378.44 83.1328C378.72 83.8543 379.88 83.5337 379.6 82.8122C377.44 77.2005 373.64 72.5508 368.6 69.3842C367.92 68.9433 367.32 69.9855 367.96 70.4264Z" fill="#161616"/>
<path d="M379.397 83.1327C381.757 78.1624 385.197 73.9136 389.597 70.6267C390.197 70.1858 389.597 69.1036 388.997 69.5846C384.437 72.9917 380.837 77.4008 378.357 82.5315C378.037 83.2129 379.077 83.8142 379.397 83.1327Z" fill="#161616"/>
<path d="M378.437 81.7299C379.037 89.9871 379.317 98.2442 379.197 106.501C379.197 107.263 380.397 107.263 380.397 106.501C380.517 98.2442 380.237 89.947 379.637 81.7299C379.557 80.9282 378.357 80.9282 378.437 81.7299Z" fill="#161616"/>
<path d="M331.598 101.932C336.918 100.128 342.198 98.3243 347.518 96.5205C348.238 96.28 347.918 95.1176 347.198 95.3581C341.878 97.1619 336.598 98.9656 331.278 100.769C330.518 101.01 330.838 102.172 331.598 101.932Z" fill="#161616"/>
<path d="M337.679 93.9152C339.519 93.3942 341.359 92.833 343.199 92.3119C343.919 92.1115 343.639 90.9491 342.879 91.1495C341.039 91.6706 339.199 92.2317 337.359 92.7528C336.639 92.9933 336.919 94.1557 337.679 93.9152Z" fill="#161616"/>
<path d="M324.359 80.5674C331.399 80.4873 338.399 80.6877 345.399 81.1286C346.159 81.1687 346.159 79.9662 345.399 79.9261C338.399 79.4852 331.359 79.3249 324.359 79.3649C323.599 79.3649 323.599 80.5674 324.359 80.5674Z" fill="#161616"/>
<path d="M339.239 75.1161C340.919 75.557 342.639 75.7574 344.359 75.7975C345.119 75.7975 345.119 74.595 344.359 74.595C342.719 74.5549 341.119 74.3545 339.559 73.9537C338.799 73.7533 338.479 74.9157 339.239 75.1161Z" fill="#161616"/>
<path d="M336.639 37.7984C342.919 43.2097 348.639 49.142 353.799 55.6355C354.279 56.2368 355.119 55.395 354.639 54.7938C349.479 48.3003 343.759 42.3279 337.479 36.9567C336.919 36.4356 336.039 37.2774 336.639 37.7984Z" fill="#161616"/>
<path d="M354.199 49.1822C355.279 50.3045 356.319 51.4269 357.399 52.5893C357.919 53.1505 358.759 52.3087 358.239 51.7475C357.159 50.6252 356.119 49.5029 355.039 48.3405C354.519 47.7793 353.679 48.621 354.199 49.1822Z" fill="#161616"/>
<path d="M329.838 51.4269C331.798 52.5893 333.798 53.6715 335.838 54.6736C336.518 55.0344 337.118 53.9922 336.438 53.6315C334.398 52.5893 332.398 51.507 330.438 50.3847C329.758 49.9839 329.158 51.026 329.838 51.4269Z" fill="#161616"/>
<path d="M399.439 42.2879C405.359 36.3556 411.279 30.4233 417.199 24.4909C417.759 23.9298 416.879 23.088 416.359 23.6492C410.439 29.5815 404.519 35.5138 398.599 41.4462C398.039 42.0073 398.879 42.8491 399.439 42.2879Z" fill="#161616"/>
<path d="M405.401 45.0536C406.921 43.9313 408.441 42.849 409.961 41.7267C410.561 41.2858 410.001 40.2436 409.361 40.6845C407.841 41.8069 406.321 42.8891 404.801 44.0115C404.161 44.4524 404.761 45.4945 405.401 45.0536Z" fill="#161616"/>
<path d="M380.96 34.4315C382.16 28.6194 383.08 22.7673 383.64 16.875C383.72 16.1134 382.52 16.1134 382.44 16.875C381.88 22.647 381 28.419 379.8 34.1109C379.64 34.8724 380.8 35.1931 380.96 34.4315Z" fill="#161616"/>
<path d="M414.601 71.3082C425.481 70.3061 436.321 69.304 447.201 68.3019C447.961 68.2217 447.961 67.0192 447.201 67.0994C436.321 68.1015 425.481 69.1036 414.601 70.1057C413.841 70.1457 413.801 71.3482 414.601 71.3082Z" fill="#161616"/>
<path d="M368.88 108.546C375.64 110.029 382.52 109.989 389.24 108.465C390 108.305 389.68 107.143 388.92 107.303C382.4 108.786 375.72 108.826 369.2 107.383C368.44 107.223 368.12 108.385 368.88 108.546Z" fill="#161616"/>
<path d="M369.879 118.727C375.039 119.408 380.199 119.568 385.399 119.208C386.159 119.168 386.159 117.965 385.399 118.005C380.199 118.366 375.039 118.206 369.879 117.524C369.119 117.444 369.119 118.647 369.879 118.727Z" fill="#161616"/>
<path d="M407.039 104.497C415.159 110.229 423.439 115.761 431.839 121.092C432.479 121.493 433.079 120.45 432.439 120.05C424.039 114.718 415.759 109.187 407.639 103.455C406.999 103.014 406.399 104.056 407.039 104.497Z" fill="#161616"/>
<path d="M304.842 386.443C297.242 395.783 289.682 405.082 282.082 414.422C291.002 445.847 296.042 454.104 299.042 453.663C301.202 453.343 302.242 448.653 303.402 443.402C306.282 430.295 304.562 419.031 302.802 412.017C307.602 406.645 312.362 401.234 317.162 395.863C313.042 392.737 308.962 389.61 304.842 386.443Z" fill="#161616" stroke="#161616" stroke-width="2" stroke-miterlimit="10"/>
<path d="M276.802 338.343C281.562 342.031 286.122 340.708 295.562 342.312C303.602 343.674 312.642 346.681 322.242 352.693C312.002 364.718 301.762 377.425 291.602 390.813C289.162 394.059 286.722 397.306 284.362 400.553C288.282 401.475 293.002 402.918 298.122 405.243C303.122 407.487 307.202 410.012 310.442 412.297C325.682 398.99 339.282 386.123 351.402 373.978C357.002 368.366 364.922 359.788 366.162 347.643C366.242 346.961 366.242 346.36 366.242 345.759C365.962 325.597 340.642 311.007 325.242 305.635C308.402 299.783 279.442 296.617 271.362 310.606C266.602 318.863 269.402 332.611 276.802 338.343Z" fill="#5FC965"/>
<path opacity="0.26" d="M306.361 318.182C306.081 321.989 305.401 326.519 304.001 331.529C303.001 335.097 301.801 338.263 300.601 340.949C299.281 341.47 298.001 341.991 296.681 342.512C305.281 345.919 313.921 349.326 322.521 352.733C316.121 360.069 309.681 367.765 303.201 375.781C296.521 384.038 290.161 392.135 284.121 400.112C288.401 401.515 292.641 402.918 296.921 404.28C312.241 387.365 327.561 370.41 342.881 353.495C344.481 348.885 344.401 345.278 343.921 342.753C341.721 330.407 326.641 320.346 306.361 318.182Z" fill="#289A2E"/>
<path opacity="0.23" d="M322.441 352.653C323.841 354.778 325.201 356.942 326.601 359.067C314.681 373.456 302.761 387.806 290.841 402.196C288.721 401.635 286.561 401.034 284.441 400.473C292.081 389.971 300.321 379.188 309.241 368.326C313.681 362.915 318.081 357.704 322.441 352.653Z" fill="#289A2E"/>
<path d="M282.637 371.212C294.437 373.376 306.278 375.501 318.077 377.665C331.717 407.487 333.237 417.107 330.677 418.751C328.837 419.913 324.997 417.027 320.717 413.78C309.997 405.643 304.038 395.943 300.798 389.41C293.678 388.448 286.557 387.446 279.438 386.484C280.477 381.393 281.557 376.302 282.637 371.212Z" fill="#161616" stroke="#161616" stroke-width="2" stroke-miterlimit="10"/>
<path d="M258.319 304.794C236.799 311.127 223.679 324.274 215.239 332.932C203.839 344.677 189.839 359.067 193.879 369.689C195.959 375.1 202.279 378.427 231.719 383.557C253.959 387.446 273.239 389.53 288.279 390.692C290.159 383.798 292.039 376.944 293.879 370.049C278.759 365.159 263.679 360.309 248.559 355.419C257.839 353.455 267.599 351.13 277.759 348.284C285.479 346.12 292.839 343.875 299.839 341.51C306.319 328.403 307.719 314.253 300.959 306.237C291.519 295.013 270.359 301.226 258.319 304.794Z" fill="#5FC965"/>
<path opacity="0.29" d="M306.2 318.663C306 322.631 305.32 327.721 303.48 333.333C302.36 336.74 301.08 339.706 299.8 342.151C298.72 342.232 297.64 342.352 296.56 342.432C287.44 345.438 277.72 348.284 267.44 350.93C260.8 352.653 254.32 354.136 248.04 355.499C263.2 360.269 278.36 364.999 293.52 369.769C293.2 371.412 292.8 373.136 292.32 374.94C291.76 377.024 291.12 378.948 290.52 380.711C269.6 375.541 248.68 370.37 227.76 365.199C226.8 364.037 223.64 359.828 224.12 354.257C224.64 348.204 230.4 343.915 237.76 339.987C259.04 328.683 294.72 321.028 306.2 318.663Z" fill="#289A2E"/>
<path opacity="0.24" d="M237.277 356.341C241.077 356.06 244.917 355.78 248.717 355.459C263.637 360.429 278.557 365.44 293.477 370.41C292.837 372.775 292.197 375.18 291.557 377.545C273.477 370.45 255.357 363.396 237.277 356.341Z" fill="#289A2E"/>
<path d="M252.68 213.965C258.6 210.478 268.88 205.507 282.56 204.064C303.52 201.86 319.6 209.395 325.96 212.802C324.8 228.555 323 241.141 321.56 249.799C319.84 260.141 318.44 265.873 317.8 275.372C317 287.277 318 297.058 318.92 303.471C311.96 305.635 301.44 308 288.48 307.72C276 307.439 265.92 304.713 259.16 302.349C260.96 287.999 260.36 276.615 259.48 268.879C258.48 260.261 257.12 256.052 255.48 245.631C253.36 232.163 252.8 221.14 252.68 213.965Z" fill="white" stroke="#161616" stroke-width="2" stroke-miterlimit="10"/>
<path opacity="0.14" d="M295.958 208.834C296.798 211.88 297.758 216.089 298.398 221.14C298.838 224.547 300.638 239.979 295.038 260.341C291.598 272.887 287.958 286.155 276.038 297.058C272.198 300.585 268.478 302.95 265.758 304.433C271.798 305.996 279.678 307.479 288.998 307.559C301.198 307.68 311.278 305.475 318.278 303.311C317.878 300.304 317.358 295.775 317.158 290.324C316.998 285.554 316.998 277.938 320.278 256.493C322.878 239.618 324.718 232.363 325.638 217.091C325.758 215.328 325.798 213.845 325.878 212.842C322.958 211.119 319.158 209.235 314.478 207.712C310.158 206.309 306.278 205.587 303.078 205.267C300.758 206.429 298.358 207.632 295.958 208.834Z" fill="#289A2E"/>
<path opacity="0.17" d="M324.718 219.376C322.478 232.083 319.518 242.344 317.198 249.479C310.398 270.322 305.638 284.351 292.798 294.612C284.838 300.986 276.558 303.671 271.238 304.954C276.638 306.477 284.278 307.96 293.518 307.76C304.158 307.519 312.758 305.114 318.398 303.07C317.638 298.18 316.758 290.845 316.998 281.906C317.278 270.322 319.158 263.347 321.238 250.641C322.398 243.186 323.878 232.523 324.718 219.376Z" fill="#289A2E"/>
<path d="M252.441 213.764C247.241 217.372 240.561 223.064 234.721 231.521C221.561 250.681 221.921 271.003 222.441 278.499C224.841 284.952 228.962 293.41 236.162 301.707C240.361 306.557 246.521 313.532 257.041 318.021C260.561 319.544 263.641 320.386 265.881 320.867C267.801 319.143 269.681 317.42 271.601 315.696C265.441 308.481 259.241 300.906 253.041 293.089C248.281 287.117 243.721 281.185 239.321 275.332C239.481 270.402 240.521 261.464 245.881 252.124C248.921 246.833 252.481 242.985 255.321 240.38C254.361 231.521 253.401 222.663 252.441 213.764Z" fill="white" stroke="#161616" stroke-width="2" stroke-miterlimit="10"/>
<path opacity="0.13" d="M253.2 222.703C241.68 235.73 236.2 248.076 233.48 255.852C228.72 269.32 229.72 276.375 230.44 279.742C231.04 282.387 232.36 286.916 237.2 293.811C241.4 299.783 250.24 310.485 267.08 319.304C268.56 317.861 270.04 316.458 271.52 315.015C266.76 309.644 261.96 303.992 257.12 298.1C250.76 290.364 244.84 282.748 239.36 275.292C239.52 271.244 240.2 265.592 242.56 259.259C246.12 249.759 251.72 243.506 255.2 240.179C254.48 234.367 253.84 228.555 253.2 222.703Z" fill="#289A2E"/>
<path opacity="0.16" d="M239.32 275.813C240.04 280.503 241.52 286.476 244.64 292.929C251.52 306.958 262.28 314.694 267.76 318.061C268.84 317.099 269.88 316.177 270.96 315.215C260.4 302.068 249.88 288.921 239.32 275.813Z" fill="#289A2E"/>
<path d="M326.559 213.043C332.399 216.61 339.919 222.182 346.439 230.479C361.239 249.278 360.799 269.24 360.239 276.615C357.519 282.948 352.919 291.246 344.839 299.423C340.119 304.152 333.199 311.007 321.399 315.456C317.439 316.939 313.959 317.781 311.439 318.262C309.319 316.578 307.159 314.895 305.039 313.211C311.919 306.116 318.919 298.701 325.879 291.005C331.199 285.113 336.319 279.301 341.279 273.569C341.079 268.759 339.959 259.98 333.919 250.761C330.479 245.55 326.519 241.783 323.319 239.217C324.439 230.479 325.519 221.781 326.559 213.043Z" fill="white" stroke="#161616" stroke-width="2" stroke-miterlimit="10"/>
<path opacity="0.16" d="M326.282 222.783C331.362 228.114 338.282 236.652 343.682 248.557C346.242 254.208 350.402 263.388 350.482 272.046C350.762 298.38 313.562 316.498 311.402 317.54C309.282 316.177 307.202 314.855 305.082 313.492C317.122 300.264 329.122 287.037 341.162 273.809C340.922 269.48 339.922 261.423 335.122 252.846C331.162 245.791 326.242 241.221 323.002 238.696C324.122 233.405 325.202 228.114 326.282 222.783Z" fill="#289A2E"/>
<path opacity="0.12" d="M341.561 273.929C340.961 277.417 339.961 281.225 338.401 285.153C331.361 302.95 317.121 312.69 309.921 316.859C308.201 315.736 306.521 314.614 304.801 313.492C317.041 300.304 329.281 287.117 341.561 273.929Z" fill="#289A2E"/>
<path d="M335.758 276.896H237.398V339.305H335.758V276.896Z" fill="white" stroke="#161616" stroke-width="2" stroke-miterlimit="10"/>
<path d="M285.159 314.053C279.959 314.694 277.439 308.361 278.799 304.152C280.119 299.984 285.039 298.02 289.039 299.463C292.999 300.906 294.919 305.756 293.519 309.644C291.959 313.973 286.519 315.736 282.519 313.812C281.839 313.492 281.199 314.534 281.919 314.855C285.479 316.578 289.839 315.937 292.679 313.131C295.439 310.365 295.839 305.996 294.119 302.589C290.199 294.813 278.079 297.298 277.239 305.836C276.799 310.405 280.079 315.897 285.159 315.295C285.919 315.175 285.919 313.973 285.159 314.053Z" fill="#161616"/>
<path opacity="0.14" d="M274.318 276.735C287.638 281.385 296.718 293.29 296.998 306.076C297.358 322.11 283.918 337.181 265.598 338.704C288.918 338.905 312.238 339.105 335.598 339.305C335.518 318.382 335.478 297.458 335.398 276.575C315.038 276.575 294.678 276.655 274.318 276.735Z" fill="#289A2E"/>
<path opacity="0.26" d="M335.6 276.535C335.24 289.281 332.72 299.222 330.6 305.756C327.48 315.255 325.24 322.19 318.8 328.322C310.04 336.74 299.12 338.303 294.32 338.704C307.96 338.824 321.6 338.945 335.24 339.105C335.28 327.2 335.36 315.295 335.44 303.351C335.44 294.412 335.52 285.473 335.6 276.535Z" fill="#289A2E"/>
<path d="M283.683 181.618C281.483 184.303 283.603 187.59 283.203 196.368C283.003 200.737 282.283 204.265 281.723 206.63C283.603 207.511 286.923 208.754 291.203 208.874C296.483 208.994 300.483 207.351 302.443 206.389C301.563 204.625 300.403 201.9 299.683 198.372C297.883 189.394 301.083 185.185 298.443 181.858C295.363 178.01 286.643 177.97 283.683 181.618Z" fill="white" stroke="#161616" stroke-width="2" stroke-miterlimit="10"/>
<path d="M269.721 143.057C267.201 149.551 268.161 155.403 268.721 157.928C268.481 157.968 263.801 158.97 262.521 162.578C261.241 166.226 263.881 171.396 269.401 173.08C271.401 177.97 276.241 187.43 286.441 192.6C288.161 193.442 289.801 194.124 291.441 194.605C292.921 194.043 294.921 193.162 297.201 191.839C304.321 187.71 308.281 182.58 309.201 181.337C310.881 179.092 313.161 175.485 314.761 170.514C315.641 170.675 317.201 170.755 318.721 169.993C322.161 168.23 323.881 162.738 321.481 159.171C319.481 156.205 315.601 156.084 315.121 156.084C315.641 154 317.241 146.505 313.201 139.089C308.561 130.551 298.601 126.062 289.241 127.345C275.401 129.148 269.961 142.416 269.721 143.057Z" fill="white" stroke="#161616" stroke-width="2" stroke-miterlimit="10"/>
<path d="M283.161 192.24C285.601 193.683 288.281 195.927 291.281 195.687C293.761 195.486 296.521 194.043 298.401 192.52C299.001 192.039 298.161 191.197 297.561 191.678C295.801 193.081 292.961 194.564 290.641 194.524C288.201 194.484 285.721 192.44 283.721 191.197C283.121 190.797 282.521 191.839 283.161 192.24Z" fill="#161616"/>
<path d="M283.001 192.761C285.281 194.725 287.881 196.929 291.081 196.769C294.201 196.609 297.121 194.524 299.161 192.28C299.681 191.719 298.841 190.877 298.321 191.438C296.561 193.362 294.081 195.246 291.361 195.526C288.361 195.807 285.961 193.763 283.841 191.919C283.281 191.398 282.441 192.24 283.001 192.761Z" fill="#161616"/>
<path d="M284.52 193.001C284.52 192.961 284.52 192.961 284.52 193.001C284.28 192.64 283.84 192.56 283.56 192.841C283.56 192.841 283.56 192.841 283.52 192.881C283.28 193.081 283.28 193.522 283.52 193.723C287.92 197.931 296 199.294 299.16 192.841C299.48 192.159 298.48 191.518 298.12 192.24C295.32 198.012 288.24 196.609 284.4 192.881C284.4 193.162 284.4 193.442 284.4 193.723C284.4 193.723 284.4 193.723 284.44 193.683C284.12 193.643 283.8 193.602 283.48 193.562V193.602C283.88 194.244 284.92 193.643 284.52 193.001Z" fill="#161616"/>
<path d="M289.321 155.924C288.801 162.418 289.081 168.871 290.121 175.285C290.161 175.605 290.561 175.806 290.841 175.685C292.401 175.164 293.521 174.242 294.361 172.839C294.761 172.158 293.721 171.557 293.321 172.238C292.641 173.401 291.801 174.082 290.521 174.523C290.761 174.643 291.001 174.804 291.241 174.924C290.201 168.631 289.961 162.257 290.481 155.884C290.601 155.123 289.401 155.123 289.321 155.924Z" fill="#161616"/>
<path d="M282.201 162.298C282.281 162.658 282.881 164.903 282.201 165.264C281.521 165.624 279.601 164.181 279.001 162.298C278.521 160.694 278.921 158.69 279.681 158.53C280.481 158.329 281.721 160.534 282.201 162.298Z" fill="#161616" stroke="#161616" stroke-miterlimit="10"/>
<path d="M302.842 162.298C302.922 162.658 303.522 164.903 302.842 165.264C302.162 165.624 300.242 164.181 299.642 162.298C299.162 160.694 299.562 158.69 300.322 158.53C301.122 158.329 302.362 160.534 302.842 162.298Z" fill="#161616" stroke="#161616" stroke-miterlimit="10"/>
<path d="M287.882 180.575C292.762 182.66 297.202 179.734 300.802 176.567C301.402 176.046 300.522 175.204 299.962 175.725C296.842 178.451 292.842 181.377 288.522 179.533C287.762 179.253 287.162 180.295 287.882 180.575Z" fill="#161616"/>
<path d="M301.961 168.671C302.721 168.671 302.721 167.468 301.961 167.468C301.201 167.468 301.201 168.671 301.961 168.671Z" fill="#161616"/>
<path d="M306.403 166.426C306.443 166.386 306.483 166.346 306.523 166.306C306.763 166.065 306.763 165.704 306.523 165.464C306.283 165.223 305.923 165.223 305.683 165.464C305.643 165.504 305.603 165.544 305.563 165.584C305.323 165.825 305.323 166.185 305.563 166.426C305.803 166.666 306.163 166.666 306.403 166.426Z" fill="#161616"/>
<path d="M305.08 169.352C305.12 169.352 305.16 169.352 305.2 169.352C305.52 169.352 305.801 169.072 305.801 168.751C305.801 168.43 305.52 168.15 305.2 168.15C305.16 168.15 305.12 168.15 305.08 168.15C304.76 168.15 304.48 168.43 304.48 168.751C304.48 169.072 304.72 169.352 305.08 169.352Z" fill="#161616"/>
<path d="M277.481 155.123C279.001 153.84 281.241 153.8 282.761 155.042C283.361 155.523 284.201 154.682 283.601 154.201C281.521 152.517 278.641 152.517 276.601 154.281C276.041 154.762 276.921 155.604 277.481 155.123Z" fill="#161616"/>
<path d="M297.003 154.682C298.723 153.158 301.163 152.878 303.203 153.96C303.883 154.321 304.483 153.279 303.803 152.918C301.283 151.555 298.283 151.916 296.163 153.84C295.563 154.361 296.403 155.203 297.003 154.682Z" fill="#161616"/>
<path d="M277.8 168.55C278.561 168.55 278.561 167.348 277.8 167.348C277.04 167.348 277.04 168.55 277.8 168.55Z" fill="#161616"/>
<path d="M282.043 167.989C282.803 167.989 282.803 166.787 282.043 166.787C281.283 166.787 281.283 167.989 282.043 167.989Z" fill="#161616"/>
<path d="M279.921 168.911C279.881 168.951 279.841 168.991 279.801 169.031C279.561 169.272 279.561 169.633 279.801 169.873C280.041 170.114 280.401 170.114 280.641 169.873C280.681 169.833 280.721 169.793 280.761 169.753C281.001 169.512 281.001 169.152 280.761 168.911C280.521 168.671 280.161 168.671 279.921 168.911Z" fill="#161616"/>
<path d="M276.242 130.03C273.842 131.513 268.602 134.76 265.042 141.414C261.482 148.028 261.522 154.281 261.682 156.966C255.842 167.508 253.202 176.808 251.922 183.141C249.842 193.202 250.962 196.889 252.402 199.334C255.922 205.347 263.002 206.83 264.722 207.191C273.562 209.075 280.602 204.545 282.202 203.503C282.642 202.18 283.082 200.537 283.322 198.693C283.762 195.527 283.522 192.801 283.162 190.837C281.162 189.193 278.842 186.989 276.602 184.103C273.202 179.694 271.282 175.365 270.202 172.238C266.682 171.877 264.042 169.472 263.802 166.787C263.562 164.262 265.322 161.015 267.642 161.015C269.362 161.015 270.602 162.778 270.842 163.099C272.162 162.338 274.002 161.015 275.642 158.93C278.002 155.924 278.402 153.239 279.482 150.433C280.522 147.707 282.522 143.939 286.842 140.011C291.002 141.494 294.322 142.937 296.602 144.019C303.922 147.427 308.082 149.431 311.322 153.8C313.122 156.205 314.042 158.57 314.522 160.053C318.242 157.207 319.762 157.968 320.082 158.129C322.442 159.452 322.362 166.707 318.682 168.711C317.282 169.472 315.682 169.272 314.682 169.031C313.522 173.08 310.962 179.694 305.082 185.546C303.122 187.51 301.122 189.033 299.322 190.195C299.162 191.679 299.082 193.723 299.482 196.128C299.842 198.332 300.482 200.136 301.082 201.419C310.802 207.832 322.882 206.67 329.442 199.775C335.282 193.603 335.282 184.263 333.082 177.89C331.082 172.078 327.202 168.591 325.282 167.067C325.802 164.823 328.682 151.515 320.322 139.29C318.162 136.123 312.122 128.467 301.242 125.822C289.722 123.016 280.242 127.585 276.242 130.03Z" fill="#378F3C"/>
<path opacity="0.17" d="M301.603 146.505C306.123 152.196 307.323 157.447 307.723 160.173C309.363 171.637 302.723 180.936 299.363 185.706C296.603 189.594 293.763 192.36 291.723 194.164C293.483 198.894 295.203 203.583 296.963 208.313C298.763 207.712 300.563 207.111 302.363 206.509C301.523 205.026 300.643 203.182 299.963 200.938C298.723 196.929 298.643 193.402 298.763 190.997C300.963 189.434 303.523 187.309 306.003 184.504C310.963 178.892 313.443 173.12 314.723 169.232C315.523 169.392 317.243 169.593 318.883 168.671C322.323 166.707 321.763 161.816 321.723 161.496C321.603 160.454 321.363 158.77 320.163 158.089C318.763 157.327 316.443 158.049 314.603 160.213C314.043 158.249 312.443 153.72 308.123 150.112C305.723 148.108 303.283 147.066 301.603 146.505Z" fill="#289A2E"/>
<path opacity="0.19" d="M289.882 156.285C289.642 156.245 288.842 159.732 286.402 175.124C287.802 175.124 289.202 175.124 290.602 175.124C290.322 173.08 290.002 170.114 289.842 166.506C289.642 160.333 290.122 156.325 289.882 156.285Z" fill="#289A2E"/>
<path opacity="0.54" d="M325.04 167.468C324.36 167.869 326.92 171.316 326.56 176.447C326.44 178.05 326.2 181.698 323.32 184.143C323.12 184.303 318.84 187.831 314.6 185.586C312.08 184.263 310.56 181.457 310.64 178.411C309.44 180.656 307.48 183.622 304.4 186.508C302.48 188.312 300.6 189.634 298.96 190.636C298.84 192.4 298.84 194.805 299.48 197.531C299.84 199.014 300.28 200.297 300.72 201.339C301.96 202.14 303.8 203.223 306.2 204.064C307.72 204.585 316.08 207.512 324.24 203.463C325.68 202.742 328.88 201.098 331.2 197.571C331.48 197.13 332.52 195.567 333.28 192.921C336 183.862 332 175.685 331.64 175.004C329.44 170.555 325.88 166.987 325.04 167.468Z" fill="#2B5219"/>
<path opacity="0.35" d="M270.163 172.398C269.803 172.439 270.603 175.725 269.723 178.972C269.083 181.377 267.043 185.305 263.563 186.107C259.923 186.909 255.403 184.223 253.323 179.213C252.363 181.417 251.083 184.945 250.883 189.434C250.763 192.36 250.603 195.486 252.043 198.573C255.283 205.467 264.803 208.153 271.883 207.511C276.603 207.071 280.163 205.227 282.083 203.984C282.563 202.621 283.043 200.978 283.363 199.094C283.883 195.847 283.763 193.001 283.483 190.917C280.323 188.632 278.163 186.267 276.803 184.544C274.883 182.099 272.283 178.812 270.963 174.242C270.763 173.721 270.403 172.358 270.163 172.398Z" fill="#2B5219"/>
</svg>
